<?xml version="1.0" encoding="iso-8859-1"?>
<!-- Generator: Adobe Illustrator 19.0.0, SVG Export Plug-In . SVG Version: 6.00 Build 0)  -->
<svg version="1.1" id="Layer_1" xmlns="http://www.w3.org/2000/svg" xmlns:xlink="http://www.w3.org/1999/xlink" x="0px" y="0px"
	 viewBox="0 0 394.114 394.114" style="enable-background:new 0 0 394.114 394.114;" xml:space="preserve">
<g>
	<g>
		<g>
			<path d="M380.834,202.114l-6.144-34.304c-5.168-29.019-16.203-56.185-32.141-80.302c-0.049-0.862-0.546-1.603-1.298-1.935
				c-4.23-6.254-8.787-12.302-13.665-18.115l-25.088-29.696c-17.408-20.48-40.96-33.28-67.584-36.864l-3.072-0.512
				c-10.24-1.024-20.48,2.048-28.16,8.704c-2.541,2.371-4.736,5.027-6.549,7.885c-1.852-2.934-4.121-5.595-6.763-7.885
				c-7.68-7.168-17.92-10.24-28.16-8.704l-3.072,0.512c-26.112,3.584-50.176,16.384-67.584,36.864L66.466,67.458
				C41.89,96.13,26.018,130.946,19.362,167.81l-6.144,34.304c-6.656,38.912,1.536,78.848,22.528,112.128l17.92,28.672
				c17.408,28.16,48.128,46.592,80.896,49.664l17.92,1.024c1.536,0,2.56,0,4.096,0c11.264,0,22.528-4.096,31.232-11.776
				c3.773-3.563,6.932-7.733,9.363-12.287c1.974,3.741,4.486,7.22,7.531,10.318c0.112,0.148,0.241,0.28,0.386,0.395
				c0.54,0.536,1.093,1.062,1.665,1.574c8.704,8.192,19.968,12.288,31.232,12.288c1.536,0,2.56,0,3.584,0l17.92-1.536
				c32.768-3.072,62.976-21.504,80.896-49.664l17.92-28.672C379.81,280.962,387.49,241.026,380.834,202.114z M180.642,374.658
				c-2.469,2.14-5.153,3.958-7.995,5.411c1.255-3.266,1.787-6.948,1.339-10.531c-0.512-4.608-4.096-13.824-17.92-16.896
				c-1.536,0-2.56,0.512-3.072,2.048c0,1.536,0.512,2.56,2.048,3.072c10.24,2.56,13.312,8.192,13.824,12.8
				c0.707,4.594-1.026,9.186-3.346,12.265c-4.01,1.084-8.222,1.477-12.526,1.047l-17.92-1.536
				c-29.696-3.072-57.344-19.968-73.216-45.056l-17.92-28.672c-19.968-31.232-27.136-68.608-20.992-104.96l0.562-3.138
				c3.658,3.353,9.898,6.812,19.918,5.698c0.512,4.096,2.56,11.264,8.192,16.384c4.608,4.608,11.264,6.656,18.944,6.144
				c3.072,11.776,12.288,29.184,32.256,26.112c1.024,0,1.536-0.512,2.048-1.024c0,0,3.072-4.096,7.168-5.12
				c2.56-0.512,5.12,0.512,8.192,2.56c0.512,0.512,1.536,0.512,2.048,0.512c0,0,18.432-1.536,26.624,10.24
				c0.512,0.512,1.024,1.024,2.048,1.024c0.512,0,1.024-0.512,0.512-0.512c1.024-1.024,1.536-2.56,0.512-3.584
				c-8.704-12.288-25.6-12.288-30.208-12.288c-4.096-2.56-8.192-3.584-11.776-3.072c-5.12,1.024-8.192,4.608-9.728,6.656
				c-20.992,2.048-25.6-23.04-25.6-24.064s-1.024-2.048-2.56-2.048c-7.168,0.512-13.312-1.024-17.408-4.608
				c-6.656-6.144-6.656-15.872-6.656-15.872c0-1.024-0.512-1.536-1.024-2.048c-0.512-0.512-1.536-0.512-2.048-0.512
				c-8.704,1.536-14.336-1.024-17.408-3.584c-1.232-1.026-2.204-2.13-2.942-3.156l4.478-25.004
				c3.502-20.136,10.008-39.434,19.213-57.338c0.303,4.497,1.044,8.763,2.291,11.258c1.536,2.56,3.584,4.608,5.12,6.656
				c3.072,3.584,5.12,5.632,5.12,11.776c0,1.536,1.024,2.56,2.56,2.56c1.024,0,2.56-1.024,2.56-2.56
				c0.512-8.192-3.072-11.776-6.144-15.36c-1.536-1.536-3.072-3.072-4.096-5.632c-1.963-3.534-2.119-13.388-1.623-19.177
				c5.712-9.638,12.238-18.811,19.543-27.415l25.088-29.696c14.322-16.632,33.239-27.821,54.476-32.109
				c-2.872,8.944-9.889,12.913-14.028,15.213c-2.56,1.536-4.608,2.56-4.608,5.12s3.072,3.584,4.608,4.096
				c6.144,2.048,9.728,4.608,10.752,7.168s-0.512,5.12-1.536,7.168v0.512c-0.512,1.024,0,2.56,1.024,3.072
				c0,0.512,0.512,0.512,1.024,0.512c1.024,0,2.048-0.512,2.56-1.536c1.536-2.56,4.096-7.168,2.048-11.776
				c-1.536-4.096-5.632-7.168-12.8-9.728c4.958-2.975,13.737-8.371,16.614-20.795c0.437-0.062,0.868-0.141,1.306-0.197l3.072-0.512
				c7.68-1.024,14.848,1.536,20.48,6.144c4.204,3.822,6.979,8.784,8.118,14.036c-0.285,1.783-0.438,3.593-0.438,5.42
				c0,0.882,0.186,1.666,0.499,2.355c-0.147,17.029-1.602,25.798-3.059,35.021c-0.714,4.523-1.428,9.158-1.988,14.829
				c-7.485,8.504-14.479,4.585-15.42,4.115c-1.024-0.512-3.072,0-3.584,1.024c-1.024,1.024-0.512,2.56,0.512,3.584
				c0,0,3.584,2.048,8.192,2.048c2.816,0,6.206-0.774,9.702-3.238c-0.303,4.952-0.486,10.684-0.486,17.574
				c0,19.968,1.536,30.208,3.072,39.936c0.918,5.812,1.835,11.444,2.425,19.075c-3.555-3.625-8.99-6.941-17.273-8.834
				c-1.536,0-2.56,0.512-3.072,2.048c0,1.536,0.512,2.56,2.048,3.072c11.334,2.429,16.585,7.738,18.794,12.891
				c0.097,2.919,0.15,6.109,0.15,9.637c0,19.456-1.536,28.672-3.072,38.4c-0.657,4.159-1.313,8.414-1.849,13.479
				c-1.967-3.182-4.675-5.984-8.391-7.335c-6.144-2.56-10.24-3.072-13.824-3.584c-6.656-1.024-8.704-1.536-13.824-10.24
				c-6.144-10.24-16.384-10.24-25.6-10.752c-5.632-0.512-11.264-0.512-14.336-3.072s-4.608-6.656-6.144-10.752
				c-2.56-6.656-5.632-14.336-16.384-17.408c-6.144-1.536-11.264-2.048-16.896-2.56h-2.048c-1.024,0-2.56,1.024-2.56,2.56
				c0,1.024,1.024,2.56,2.56,2.56h2.048c5.12,0.512,10.752,1.024,15.872,2.56c8.192,2.56,10.24,7.68,12.8,14.336
				c1.536,4.608,3.584,9.216,7.68,12.8c4.608,3.584,10.752,4.096,17.408,4.096c8.704,0,16.896,0.512,21.504,8.192
				c6.144,10.752,9.728,11.776,17.408,12.8c3.072,0.512,7.168,1.024,12.8,3.072c5.52,1.725,8.015,9.257,9.058,13.99
				c-0.223,4.393-0.354,9.379-0.354,15.194c0,19.968,1.536,30.208,3.072,39.936c1.536,10.24,3.072,19.456,3.072,38.4
				c0,1.534,0.078,3.061,0.224,4.575C191.093,361.129,187.166,369.004,180.642,374.658z M350.626,308.61l-6.642,10.627
				c-3.311,1.983-8.079,2.335-13.326,2.685c-2.56,0.512-5.632,0.512-8.192,1.024c-10.752,2.048-13.312,7.68-15.36,12.288
				c-1.536,3.072-2.048,4.608-4.096,5.12c-2.048,0.512-5.632-0.512-9.216-1.024c-7.68-1.536-17.408-3.584-20.48,7.168
				c-2.56,10.24-16.896,14.848-16.896,14.848c-1.024,0.512-2.048,1.536-1.536,3.072c0.512,1.024,1.536,1.536,2.56,1.536
				c0.128,0,0.224,0,0.288,0c-0.064,0-0.16,0-0.288,0c0.512,0,16.896-5.12,20.48-18.432c2.048-5.632,5.632-5.632,14.336-3.584
				c4.096,1.024,8.192,2.048,11.776,1.024c4.096-1.024,5.632-4.608,7.168-7.68c2.048-4.096,3.584-7.68,11.776-9.216
				c2.56,0,5.12-0.512,7.68-0.512c2.859-0.179,5.839-0.365,8.685-0.892l-6.638,10.62c-15.872,25.6-43.52,42.496-73.216,45.056
				l-17.92,1.536c-8.54,0.854-16.718-1.506-23.655-6.17c4.139-2.245,8.412-6.112,10.855-12.774c0.512-1.024,0-2.56-1.536-3.072
				c-1.024-0.512-2.56,0-3.072,1.536c-2.382,6.352-6.815,9.416-10.614,10.898c-6.318-6.047-10.124-13.51-11.125-21.796
				c0.151-1.478,0.235-2.966,0.235-4.463c0-0.901-0.194-1.699-0.521-2.398c-0.118-18.402-1.59-28.208-3.063-37.538
				c-1.536-10.24-3.072-19.456-3.072-38.4c0-19.456,1.536-28.672,3.072-38.4c1.536-9.728,3.072-19.968,3.072-39.936
				s-1.536-30.208-3.072-39.936c-1.031-6.528-2.061-12.83-2.627-21.992c3.19,1.287,10.532,4.961,11.331,11.752
				c0,1.536,1.024,2.56,2.56,2.56s2.56-1.536,2.56-2.56c-0.376-4.322-2.616-7.745-5.325-10.35c2.944-1.107,6.715-3.28,9.932-7.57
				c1.024-1.024,0.512-2.56-0.512-3.584s-2.56-0.512-3.584,0.512c-4.608,6.144-10.752,6.656-10.752,6.656
				c-0.135,0-0.262,0.018-0.389,0.033c-3.017-1.761-5.549-2.593-5.755-2.593c-0.103-0.052-0.214-0.085-0.326-0.116
				c-0.119-3.188-0.186-6.7-0.186-10.636c0-18.944,1.536-28.16,3.072-37.888c1.245-7.884,2.49-16.106,2.917-29.569
				c2.88,2.745,7.399,4.993,14.491,4.993c1.024,0,1.536,0,1.536,0c1.536,0,2.56-1.024,2.56-2.56s-1.024-2.56-2.56-2.56
				c-11.403,0.814-14.705-5.17-15.58-8.169c0.13-0.486,0.22-0.998,0.22-1.559c0-1.933-0.154-3.831-0.443-5.686
				c1.135-5.45,3.913-10.326,8.123-13.77c4.798-4.362,11.082-6.485,17.269-6.388c8.342,2.541,8.878,6.05,9.867,10.996
				c1.024,4.608,2.048,10.24,10.752,13.824c12.288,4.608,10.752,11.776,7.168,24.064l-0.512,1.024
				c-0.612,2.142-0.944,4.074-1.045,5.832c-9.615-6.641-21.176-3.682-27.115-0.712c-1.024,1.024-1.536,2.56-1.024,3.584
				c1.024,1.024,2.56,1.536,3.584,1.024c1.024,0,16.384-8.192,26.624,5.12c0.1,0.1,0.202,0.197,0.305,0.293
				c2.651,3.856,7.176,6.275,11.983,8.411c5.12,2.56,6.656,13.824,7.168,17.408c0,1.536,1.024,2.56,2.56,2.56
				c1.536-0.512,2.56-1.536,2.56-3.072s-1.536-17.408-10.24-21.504c-9.728-4.096-13.312-7.68-10.24-17.408l-0.512-1.024
				c3.584-11.264,7.168-24.064-9.728-30.72c-6.144-2.56-6.656-5.632-7.68-10.24c-0.499-2.495-1.123-5.354-2.991-7.987
				c22.223,3.926,42.395,15.335,56.752,32.563l25.088,29.696c3.057,3.601,5.969,7.307,8.753,11.1
				c-4.476,0.5-9.517,1.893-13.361,5.284c-4.608,4.096-6.656,10.24-5.632,18.432c2.048,18.944-2.56,19.456-14.336,20.992
				c-3.072,0-5.632,1.024-8.192,2.048c-1.024,1.024-1.536,2.048-1.024,3.584c0.512,1.024,1.536,1.536,2.56,1.536
				c0.512,0,0.512,0,1.024,0c2.048-1.024,4.096-1.536,6.656-2.048c14.848-2.048,21.504-5.12,18.944-26.624
				c-1.024-6.144,0.512-10.752,3.584-13.824c3.638-3.358,9.108-4.267,13.323-4.403c2.79,4.056,5.411,8.218,7.889,12.462
				c1.744,6.881,12.493,51.753-21.212,63.621c-10.752,4.096-13.824,12.288-16.384,19.968c-3.072,8.192-5.632,16.384-18.432,20.992
				c-4.608,2.048-11.776,1.536-18.944,1.536c-9.728-0.512-19.968-0.512-28.16,3.584c-3.072,1.536-5.632,4.096-7.68,7.168
				c-0.512,1.536,0,3.072,1.024,3.584c0.512,0.512,1.024,0.512,1.536,0.512c1.024,0,1.536-0.512,1.536-1.536
				c1.536-2.048,3.072-4.096,5.632-5.12c7.168-3.584,16.384-3.584,25.6-3.072c7.68,0.512,14.848,0.512,20.992-1.536
				c14.848-5.632,18.432-15.872,21.504-24.576c2.56-7.68,4.608-13.824,13.312-16.896c26.609-9.768,28.622-37.039,26.885-54.704
				c8.109,16.72,13.915,34.584,17.147,53.168l6.144,34.304C377.762,240.002,370.594,277.378,350.626,308.61z"/>
			<path d="M41.378,157.57c-0.512-1.536-1.536-2.048-3.072-1.536c-1.536,0.512-2.048,1.536-1.536,3.072
				c0.512,2.048,1.024,3.584,2.048,5.12c0,1.024,1.024,1.536,2.048,1.536c0,0,0.512-0.512,1.536,0
				c1.024-1.024,1.536-2.56,1.024-3.584C42.402,160.642,41.89,159.106,41.378,157.57z"/>
			<path d="M57.762,175.49c-4.096-1.536-7.168-3.072-9.728-6.144c-1.024-1.024-2.56-1.024-3.584,0c-1.024,1.024-1.024,2.56,0,3.584
				c3.072,3.584,7.168,6.144,11.776,7.68c0.512,0,0.512,0,1.024,0c1.024,0,2.048-0.512,2.048-2.048
				C59.81,177.538,59.298,176.002,57.762,175.49z"/>
			<path d="M207.266,238.466c-1.536,0.512-3.072,1.024-4.608,1.536c-1.024,1.024-1.536,2.56-1.024,3.584
				c0.512,1.024,1.536,1.536,2.56,1.536c0.512,0,1.024-0.512,1.024-0.512c1.024-0.512,2.56-1.024,3.584-1.536
				c1.024-0.512,2.048-2.048,1.536-3.072C209.826,238.978,208.802,237.954,207.266,238.466z"/>
			<path d="M217.506,241.026c0,0,0.512,0,1.024,0c6.144-1.536,10.24-4.608,12.8-8.704c0.512-1.536,0-3.072-1.024-3.584
				c-1.536-0.512-3.072,0-3.584,1.024c-1.536,2.048-3.584,4.608-9.728,6.144c-1.536,0.512-2.56,1.536-2.048,3.072
				C215.458,240.514,216.482,241.026,217.506,241.026z"/>
			<path d="M218.53,192.898c1.024,0,8.704,1.536,17.92,1.536c10.24,0,22.528-2.048,28.672-8.704
				c4.096-4.608,5.12-10.752,3.072-17.92c-1.536-6.656-4.608-10.752-9.216-13.312c-2.56-1.536-5.12-2.048-7.168-2.048
				c1.024-3.072,2.56-7.168,1.536-11.776c-1.024-5.12-5.12-10.24-11.776-13.824c3.072-4.608,8.192-13.312,3.072-20.992
				c-1.536-2.56-3.584-4.608-5.632-6.656c-5.12-5.12-9.728-9.728-8.192-16.896c0-1.536-0.512-2.56-2.048-3.072
				c-1.536,0-2.56,0.512-3.072,2.048c-2.048,9.728,4.096,15.872,9.216,21.504c2.048,2.048,3.584,4.096,5.12,6.144
				c4.608,6.656-4.608,16.896-4.608,16.896c-0.512,0.512-0.512,1.024-0.512,2.048c0.512,1.024,1.024,1.536,1.536,2.048
				c6.656,3.072,10.752,7.168,11.776,11.776c1.536,6.656-3.584,12.288-3.584,12.288c-0.512,1.024-0.512,2.048,0,3.072
				c1.024,1.024,2.048,1.536,3.072,1.024c0,0,4.608-1.536,9.216,1.024c3.072,2.048,5.12,5.12,6.656,10.24
				c1.536,5.632,1.024,9.728-2.048,12.8c-8.192,9.216-33.28,7.168-41.984,5.632c-1.536-0.512-3.072,0.512-3.072,2.048
				C215.97,191.362,216.994,192.898,218.53,192.898z"/>
			<path d="M282.018,151.938c0-1.536,0-5.632,2.048-8.704c0.512-1.536,0-3.072-1.024-3.584c-1.536-0.512-3.072,0-3.584,1.024
				c-2.56,4.608-2.56,9.216-2.56,11.264h2.56H282.018z"/>
			<path d="M230.818,343.426c-1.536,0-2.56,0.512-3.072,2.048c-0.512,1.024-1.024,2.56-1.024,3.584c0,1.536,0.512,2.56,2.56,3.072
				c1.024,0,2.56-0.512,3.072-2.56c0-1.024,0-2.048,0.512-3.072C232.866,344.962,232.354,343.938,230.818,343.426z"/>
			<path d="M237.474,330.626c-3.072,1.536-5.12,4.096-7.168,7.168c-0.512,1.024,0,3.072,1.024,3.584
				c0.512,0.512,1.024,0.512,1.536,0.512c1.024,0,1.536,0,1.536-1.024c1.536-2.048,3.072-4.096,5.632-5.632
				c1.536-1.024,1.536-2.56,1.024-3.584C240.034,330.114,238.498,330.114,237.474,330.626z"/>
			<path d="M283.042,272.258c-1.536-1.024-2.56-1.536-3.072-2.56c-1.024-1.536-2.56-1.536-3.584-1.024
				c-1.536,1.024-1.536,2.56-1.024,3.584c1.024,2.048,3.072,3.584,5.632,4.608c5.632,2.56,9.216,7.168,10.24,12.288
				c1.024,6.656-3.072,13.824-11.264,21.504c-6.656,6.144-15.36,7.68-23.552,9.216c-2.048,0-4.096,0.512-6.144,1.024
				c-1.536,0.512-2.56,1.536-2.048,3.072c0.512,1.024,1.536,2.048,2.56,2.048c0.512,0,0.512,0,1.024,0.512
				c1.536-0.512,3.584-0.512,5.632-1.024c8.704-1.536,18.432-3.584,26.112-10.752c9.728-9.216,13.824-17.92,12.8-26.112
				C295.33,281.474,290.21,275.842,283.042,272.258z"/>
			<path d="M276.898,264.578h0.512c1.536,0,2.56-0.512,3.072-1.536l0.512-1.024v-0.512c0-1.536-0.512-2.56-2.048-3.072
				c-1.024-0.512-2.56,0.512-3.072,2.048l-0.512,1.024C274.85,262.53,275.362,264.066,276.898,264.578z"/>
			<path d="M322.978,224.13c2.56-8.704,5.12-16.896,16.896-19.968c1.536-0.512,2.56-1.536,2.048-3.072
				c-0.512-1.536-1.536-2.56-3.072-2.048c-14.848,3.072-17.92,14.336-20.48,23.04c-2.56,9.728-4.608,15.872-18.432,13.312
				c-13.617-2.476-25.169-1.397-32.296-0.157c-5.983-0.296-13.653,3.093-17.88,12.957c-0.512,2.048-1.536,4.096-2.048,6.144
				c-2.56,8.192-4.608,15.872-15.36,15.872c-13.824,0-19.968,11.264-20.992,17.408c0,1.536,0.512,2.56,2.56,3.072
				c1.024,0,2.048-1.024,2.048-2.048c0-0.512,2.56-12.8,15.872-13.312c14.336-0.512,17.92-10.752,20.48-19.456
				c0.512-2.048,1.536-4.096,2.048-5.632c1.82-4.161,4.301-6.731,6.906-8.191c-0.062,0.134-0.142,0.296-0.25,0.511
				c0,0,3.302-1.029,8.829-1.841c3.964,0.937,6.575,4.285,7.043,8.497c0,0.512,0,1.536,0,2.048c0,1.536,1.024,2.56,2.56,2.56
				s2.56-1.024,2.56-2.56c0-1.024,0-1.536,0-2.56c-0.258-3.348-1.682-6.435-3.946-8.808c5.814-0.321,12.77-0.162,20.33,1.129
				C316.834,244.61,320.418,233.858,322.978,224.13z"/>
			<path d="M354.722,191.874c-1.536,1.536-3.584,2.56-6.144,3.584c-1.536,1.024-2.048,2.048-1.536,3.584
				c0.512,1.024,1.536,1.536,2.56,1.536c0.512,0,0.512,0,1.536-0.512c3.072-1.536,5.12-3.072,7.168-4.608
				c1.024-1.024,1.024-2.56,0-3.584S355.746,190.85,354.722,191.874z"/>
			<path d="M359.842,182.146l-2.56,0.512c0,1.536,0,2.56,0,4.096c0,1.536,0.512,2.56,2.56,3.072c1.536,0,2.56-0.512,2.048-2.048
				c0.512-2.048,0.512-3.584,0.512-5.12L359.842,182.146z"/>
			<path d="M349.09,242.05c1.024-1.024,1.536-2.56,0.512-3.584c-1.024-1.024-2.56-1.536-3.584-0.512
				c-2.56,2.048-9.728,10.24-0.512,26.624c3.584,6.144,0.512,11.264-3.584,14.336c-4.096,3.072-9.728,4.096-13.312,0
				c-1.024-1.024-2.56-1.024-3.584-0.512c-1.024,0.512-1.536,2.048-1.024,3.072c0,0,3.072,6.656,0.512,11.776
				c-1.536,3.072-5.12,5.632-10.24,6.656c-1.536,0.512-2.56,1.536-2.048,3.072c0.512,1.024,1.536,2.048,2.56,2.048
				c0.512,0,0.512,0,1.024-0.512c7.168-1.536,11.776-4.608,13.824-9.216c1.536-3.072,1.536-6.656,1.024-9.216
				c4.608,1.024,9.728,0,13.824-3.072c6.144-4.096,10.24-12.288,5.12-20.992C342.434,249.218,347.554,243.586,349.09,242.05z"/>
			<path d="M158.626,65.41c0.512,0.512,1.536,1.024,2.048,1.024c1.024,0,1.536-0.512,1.536-1.024c1.024-1.024,1.024-2.56,0-3.584
				l-0.512-0.512c-1.024-1.024-2.56-1.024-3.584,0s-1.024,2.56,0,3.584L158.626,65.41z"/>
			<path d="M161.698,69.506c1.024,1.536,1.024,3.072,1.024,4.608c0,1.024,1.024,2.56,2.56,2.56c1.536,0,2.56-1.024,2.56-2.56
				c0-2.56-0.512-4.608-1.536-7.168c-1.024-1.024-2.56-1.536-3.584-1.024C161.698,66.946,161.186,68.482,161.698,69.506z"/>
			<path d="M154.018,191.874c10.24,3.072,14.336,6.144,15.872,8.704c1.536,2.048,1.024,3.584,1.024,3.584
				c-0.512,1.024,0,2.56,1.536,3.072c0.512,0,0.512,0,1.024,0c1.024,0,1.536-0.512,1.024-1.536c0-0.512,1.024-3.072-0.512-6.656
				c-2.56-5.12-9.216-9.216-19.456-12.288c-8.704-2.56-14.336-7.168-15.872-13.824c-2.048-7.68,2.048-15.872,6.144-20.48
				c2.56-2.048,5.12-4.096,8.192-6.144c6.656-4.608,14.336-10.24,11.776-19.456c-1.536-6.144-4.608-9.728-7.168-12.8
				c-4.096-4.608-6.144-7.68-1.024-16.896c1.536-3.072,3.072-5.632,4.608-7.68c1.536-2.56,3.072-4.608,4.096-6.656
				c0.512-1.536,0-3.072-1.024-3.584c-1.536-0.512-3.072,0-3.584,1.024c-1.024,2.048-2.048,4.096-3.584,6.656
				c-1.536,2.048-3.072,4.608-4.608,7.68c-6.656,12.288-2.56,17.408,1.536,22.528c2.56,3.072,4.608,6.144,6.144,10.752
				c1.536,5.632-2.56,8.704-9.728,13.824c-3.072,2.56-6.144,4.608-8.704,7.168c-5.632,5.632-9.728,15.872-7.168,25.6
				C136.098,180.098,140.706,187.778,154.018,191.874z"/>
			<path d="M105.378,127.874c6.656,3.584,12.8,7.168,13.312,15.872c0,1.536,1.024,2.56,2.56,2.56c2.048,0,3.072-1.536,1.536-3.072
				c-1.024-11.776-8.704-15.872-15.872-19.968c-6.144-3.584-12.288-6.656-13.824-14.848c-2.56-14.336,12.8-22.016,13.312-22.528
				c1.024,0,1.536-1.024,1.536-1.536c0-0.512,0-1.536-0.512-2.048c-3.584-4.608-5.12-10.24-4.096-14.848
				c1.536-6.144,7.68-11.264,16.896-14.848c1.536-0.512,2.048-1.536,1.536-3.072c-0.512-1.536-1.536-2.048-3.072-1.536
				c-13.824,5.12-18.432,12.8-19.968,17.92c-1.536,5.632,0,11.264,3.584,16.896c-6.656,4.096-15.872,13.824-13.312,26.624
				C91.042,119.682,98.722,124.29,105.378,127.874z"/>
			<path d="M100.77,160.13c14.336,3.072,15.872,12.288,15.872,12.8c0,1.024,1.024,2.048,2.56,2.048
				c1.536-0.512,2.56-1.536,2.56-3.072c0-1.024-1.536-13.824-19.968-17.408c-18.432-3.584-24.576-11.776-24.576-11.776
				c-1.024-1.024-2.56-1.536-3.584-0.512s-1.536,2.56-0.512,3.584C73.634,146.306,79.778,156.034,100.77,160.13z"/>
			<path d="M155.554,278.914c-1.024,0-2.56,1.024-2.56,2.56c0,1.024-0.512,2.56-0.512,3.584c0,1.536,0.512,3.072,2.56,3.072
				c1.536,0,2.56-1.024,2.56-2.56c0-1.536,0.512-2.56,0.512-4.096C158.114,280.45,157.09,278.914,155.554,278.914z"/>
			<path d="M153.506,274.818c0,1.536,1.024,2.56,2.56,2.56s2.56-1.536,2.56-3.072c0-2.048-0.512-4.096-1.024-6.144
				c-0.512-1.536-1.536-2.56-3.072-2.048c-1.536,0.512-2.56,1.536-2.048,3.072C152.994,271.234,153.506,272.77,153.506,274.818z"/>
			<path d="M178.594,324.994c0,0-10.752,5.12-17.408,1.536c-3.072-1.536-5.12-5.12-5.632-10.24c0-1.024-0.512-1.536-1.536-2.048
				c-1.024,0-2.048,0-2.56,0.512c0,0-6.656,4.608-14.336,3.072c-5.632-1.024-10.752-5.12-15.36-12.288
				c0,0-8.192-13.824,1.024-29.696c0.512-1.536,0-3.072-1.024-3.584c-1.536-0.512-3.072,0-3.584,1.024
				c-10.24,18.432-1.024,34.304-1.024,35.328c5.632,8.704,11.776,13.312,18.944,14.848c0.402,0.067,0.801,0.122,1.198,0.168
				c-1.236,1.96-2.04,4.124-2.734,5.976c-1.024,3.072-2.048,5.12-3.584,6.144c-1.536,0.512-4.608,0-8.704-1.536
				c-1.024-0.512-2.048-0.512-2.56,0c-0.512,0.512-1.024,1.024-1.024,2.048c0,0,0,2.048-2.048,4.096
				c-2.048,1.536-5.12,2.56-9.728,2.048c-0.512,0-7.68,0-10.752,4.608c-2.048,3.072-1.536,7.68,1.536,13.824
				c0,1.024,1.024,1.536,2.048,1.536c0,0,0.512,0,1.024,0c1.024-1.024,1.536-2.56,1.024-3.584c-2.048-4.096-2.56-7.168-1.536-8.704
				c1.024-2.048,5.12-2.048,6.144-2.048c6.144,0.512,10.752-1.024,13.824-3.584c1.536-1.536,2.56-3.072,3.072-4.608
				c4.096,1.024,7.68,1.024,10.24,0c3.584-1.536,5.12-5.632,5.632-8.192c1.536-4.608,2.56-7.168,6.144-8.192
				c0.304-0.101,0.58-0.228,0.835-0.37c1.92-0.451,3.566-1.063,4.797-1.678c1.536,4.608,4.096,8.192,7.68,10.24
				c3.072,1.536,5.632,2.048,8.704,2.048c6.656,0,13.312-3.072,13.824-4.096c1.024-1.024,2.048-2.56,1.024-3.584
				C181.154,324.994,179.618,324.482,178.594,324.994z"/>
			<path d="M97.186,334.21c0.512-1.536,0-3.072-1.536-3.584c-8.192-3.584-12.8-8.192-14.336-13.824
				c-2.56-9.728,5.632-19.456,5.632-19.456c1.024-1.024,1.024-2.048,0.512-3.072c-0.512-1.024-1.536-1.536-2.56-1.536
				c-6.656,1.024-12.288,0.512-16.384-1.536c-1.536-0.512-3.072,0-3.584,1.536c-0.512,1.536,0,3.072,1.536,3.584
				c4.096,2.048,8.704,2.56,13.824,2.56c-2.56,4.608-5.632,11.776-3.584,19.456c2.048,7.68,7.68,13.312,17.408,17.408
				c0.512,0,0.512,0,1.024,0C96.162,335.746,97.186,335.234,97.186,334.21z"/>
			<path d="M60.834,260.994c0-0.512-1.024-1.024-1.536-1.024c-9.216-1.536-13.312-5.632-13.312-12.288c0-1.536-1.024-2.56-2.56-2.56
				s-2.56,1.024-2.56,2.56c0,5.12,2.048,13.824,14.848,16.896c-1.024,4.096-2.048,11.264,0,18.432
				c0.512,1.536,1.536,2.048,2.56,2.048c0,0,0.512,0,1.024-0.512c1.024-0.512,2.048-1.536,1.536-3.072
				c-2.56-8.704,0.512-18.432,0.512-18.432C61.346,262.53,61.346,261.506,60.834,260.994z"/>
			<path d="M44.45,241.538c0,0.512,0.512,0.512,1.024,0.512c1.024,0,2.048-0.512,3.072-2.048c0-0.512,0.512-1.024,0.512-1.024
				c0.512-1.024,0.512-2.56-0.512-3.584c-1.024-0.512-2.56-0.512-3.584,0.512c-0.512,0.512-1.024,1.024-1.536,2.048
				C42.914,239.49,43.426,241.026,44.45,241.538z"/>
		</g>
	</g>
</g>
<g>
</g>
<g>
</g>
<g>
</g>
<g>
</g>
<g>
</g>
<g>
</g>
<g>
</g>
<g>
</g>
<g>
</g>
<g>
</g>
<g>
</g>
<g>
</g>
<g>
</g>
<g>
</g>
<g>
</g>
</svg>
