<?xml version="1.0" encoding="iso-8859-1"?>
<!-- Generator: Adobe Illustrator 19.0.0, SVG Export Plug-In . SVG Version: 6.00 Build 0)  -->
<svg version="1.1" id="Capa_1" xmlns="http://www.w3.org/2000/svg" xmlns:xlink="http://www.w3.org/1999/xlink" x="0px" y="0px"
	 viewBox="0 0 512 512" style="enable-background:new 0 0 512 512;" xml:space="preserve">
<g>
	<g>
		<path d="M131.351,31.148c-6.1-8.864-18.222-11.103-27.073-5.01c-13.491,9.273-24.101,19.195-32.446,30.318
			c-6.379,8.507-4.75,20.564,3.653,27.073c3.543,2.745,7.742,4.075,11.908,4.075c5.717,0,11.376-2.505,15.211-7.307
			c6.6-8.254,15.029-16.093,23.731-22.076c5.496-3.777,8.442-9.877,8.442-16.074C134.777,38.351,133.661,34.516,131.351,31.148z"/>
	</g>
</g>
<g>
	<g>
		<path d="M466.149,99.383c-12.842-41.57-42.608-73.296-79.422-84.801c-47.54-15.431-89.253-5.548-118.565,7.716
			C245.081,7.845,217.514,0,189.286,0c-30.739,0-60.136,9.039-85.009,26.139c-11.765,8.092-22.719,18.235-31.7,29.37
			c-1.038,1.194-1.81,2.349-2.401,3.355c-20.999,27.514-32.089,60.097-32.089,94.282c0,36.476,12.927,71.745,36.431,99.428
			c0.584,0.857,1.239,1.772,1.901,2.7c0.688,0.967,1.376,1.921,1.927,2.751c0.201,0.298,0.409,0.591,0.623,0.876
			c8.773,11.7,17.482,56.365,21.2,75.437c0.98,5.036,1.843,9.461,2.544,12.751c1.843,9.215,3.718,19.176,4.938,29.558
			c4.082,35.392,10.908,64.315,20.188,85.716c12.907,30.98,31.07,47.65,53.99,49.558c0.539,0.045,1.084,0.071,1.622,0.071h2.596
			c28.423,0,44.218-32.699,55.924-64.691c0.097-0.273,0.188-0.539,0.273-0.811l16.009-50.525l15.626,50.408
			c0.097,0.311,0.195,0.623,0.311,0.934C285.21,477.425,301.53,512,330.109,512h2.596c0.558,0,1.123-0.026,1.681-0.071
			c15.756-1.369,37.897-11.077,53.906-49.506c8.702-20.772,15.113-47.91,20.194-85.716c1.233-10.448,3.108-20.396,4.906-29.383
			c0.74-3.504,1.603-7.917,2.583-12.94c3.712-19.085,12.42-63.763,21.278-75.573C472.152,211.562,482.93,151.893,466.149,99.383z
			 M406.02,235.552c-13.043,17.411-20.817,53.153-28.261,91.375c-0.934,4.783-1.752,8.981-2.498,12.524
			c-2.005,9.993-4.049,20.876-5.406,32.381c-4.568,34.004-10.117,58.001-17.488,75.574c-6.275,15.068-13.991,24.575-20.759,25.658
			h-0.039c-2.103-1.603-9.779-9.098-20.649-38.682l-28.41-91.673c-0.11-0.363-0.234-0.72-0.363-1.071
			c-3.764-10.045-13.089-16.528-23.751-16.528s-19.98,6.483-23.744,16.528c-0.117,0.305-0.227,0.623-0.331,0.947l-29.072,91.738
			c-11.142,30.344-18.384,37.3-20.396,38.741h-0.376c-9.267-1.369-16.924-16.586-20.811-25.918
			c-7.755-17.884-13.751-43.802-17.346-74.996c-1.389-11.791-3.433-22.68-5.483-32.907c-0.701-3.335-1.525-7.547-2.459-12.343
			c-7.378-37.878-15.081-73.328-27.923-90.888c-0.701-1.038-1.531-2.193-2.356-3.355c-0.681-0.954-1.363-1.901-1.908-2.719
			c-0.441-0.662-0.921-1.291-1.441-1.895c-17.878-20.766-27.728-47.365-27.728-74.899c0-25.581,8.332-50,24.114-70.674
			c0.896-1.058,1.577-2.07,2.116-2.972c6.502-7.956,14.666-15.49,23.089-21.278c18.352-12.615,40.116-19.286,62.945-19.286
			c24.036,0,47.287,7.586,65.463,21.35c6.042,4.581,14.192,5.23,20.863,1.687c22.732-12.025,58.358-23.582,99.298-10.305
			c25.152,7.865,44.847,29.435,54.101,59.376C442.055,151.861,433.431,198.447,406.02,235.552z"/>
	</g>
</g>
<g>
</g>
<g>
</g>
<g>
</g>
<g>
</g>
<g>
</g>
<g>
</g>
<g>
</g>
<g>
</g>
<g>
</g>
<g>
</g>
<g>
</g>
<g>
</g>
<g>
</g>
<g>
</g>
<g>
</g>
</svg>
